<?xml version="1.0" encoding="UTF-8" standalone="no"?>
<!DOCTYPE svg PUBLIC "-//W3C//DTD SVG 1.1//EN" "http://www.w3.org/Graphics/SVG/1.1/DTD/svg11.dtd">
<svg width="100%" height="100%" viewBox="0 0 1024 1024" version="1.1" xmlns="http://www.w3.org/2000/svg" xmlns:xlink="http://www.w3.org/1999/xlink" xml:space="preserve" xmlns:serif="http://www.serif.com/" style="fill-rule:evenodd;clip-rule:evenodd;stroke-linejoin:round;stroke-miterlimit:2;">
    <g>
        <g transform="matrix(1,0,0,1,0,-32.135486)">
            <path d="M511.707,136.296C496.093,136.488 277.905,213.021 264.09,224.472C250.053,235.62 104.699,427.387 104.699,427.387L158.533,673.152C158.923,673.157 159.313,673.173 159.699,673.215L290.454,687.742C297.303,688.504 302.67,694.857 303.147,702.766L307.179,769.275L421.237,778.654L429.095,717.268C430.113,709.309 436.037,703.41 443.024,703.41L580.973,703.41C587.956,703.41 593.88,709.309 594.899,717.268L602.757,778.654L716.818,769.275L720.847,702.766C721.327,694.857 726.691,688.508 733.54,687.742L864.244,673.215C864.63,673.173 865.016,673.157 865.406,673.152L919.301,427.387C919.301,427.387 773.967,235.62 759.91,224.472C748.027,214.62 555.79,136.462 540.204,136.271L512.305,136.271C512.196,136.271 512.095,136.296 512.002,136.296C511.905,136.296 511.804,136.271 511.707,136.271L511.707,136.296ZM298.79,387.332C348.854,387.332 354.018,460.471 389.43,507.408C424.842,554.344 348.854,627.559 298.79,627.559C248.752,627.559 208.162,573.786 208.162,507.408C208.162,441.074 248.752,387.332 298.79,387.332ZM725.219,387.332C775.254,387.332 815.84,441.074 815.84,507.408C815.84,573.786 775.254,627.559 725.219,627.559C675.148,627.559 599.16,554.344 634.572,507.408C669.978,460.479 675.148,387.332 725.219,387.332ZM511.962,517.575C528.105,517.575 541.216,529.483 541.216,544.135L541.248,599.658C541.248,614.323 528.137,626.221 511.994,626.221C495.852,626.221 482.768,614.323 482.768,599.658L482.736,544.135C482.736,529.483 495.82,517.575 511.962,517.575Z" style="fill:white;fill-rule:nonzero;"/>
        </g>
        <g transform="matrix(4.162611,0,0,-4.162611,784.07144,686.587635)">
            <path d="M-8.64,0L-9.613,-16.063C-9.73,-17.999 -11.067,-19.54 -12.747,-19.679L-46.205,-22.43C-46.287,-22.437 -46.369,-22.44 -46.449,-22.44C-48.112,-22.44 -49.547,-21.034 -49.792,-19.11L-51.711,-4.116L-79.012,-4.116L-80.93,-19.11C-81.188,-21.128 -82.754,-22.579 -84.517,-22.43L-117.976,-19.679C-119.656,-19.54 -120.992,-17.999 -121.11,-16.063L-122.082,0L-150.327,3.138C-150.314,-0.36 -150.275,-4.192 -150.275,-4.955C-150.275,-39.329 -119.603,-55.851 -65.427,-56.041L-65.294,-56.041C-11.118,-55.851 19.54,-39.329 19.54,-4.955C19.54,-4.178 19.581,-0.362 19.594,3.138L-8.64,0Z" style="fill:white;fill-rule:nonzero;"/>
        </g>
    </g>
</svg>
